<svg height="24" viewBox="0 0 24 24" width="24" xmlns="http://www.w3.org/2000/svg"><g fill="none" fill-rule="evenodd" transform="translate(0 3)"><path d="m5.83245745 3.12541039c.64452332-2.40416184 1.53074288-3.36582657 2.65865868-2.88499421 1.69187367.72124856 2.41696247.48083237 3.14205117 0 .4833925-.32055491 1.2084812-.32055491 2.1752662 0l3.3837474 1.44249711c.966785.32055491 1.6113083 1.4424971 1.93357 3.36582657.3222616 1.92332948.5639579 3.20554912.7250887 3.84665895 2.4169624.96166473 3.7865745 2.40416179 4.1088362 4.32749129.4833924 2.8849942-3.3837475 5.7699884-11.3597235 4.3274913-7.97597607-1.4424971-13.0515972-6.0104046-12.56820471-8.65498259.32226166-1.76305202 1.85300454-2.64457803 4.59222864-2.64457803z" fill="#e00"/><path d="m4.88723097 5.53846154c1.46169292 2.50671299 4.14146327 4.07340861 8.03931103 4.70008686 3.8978478.6266782 6.1715923 0 6.8212336-1.88003475.2776325 1.41672065.2776325 2.35673805 0 2.82005215-.9146414 1.5263568-3.4120314 1.9679908-6.0903871 1.6450304-3.8978478-.4700087-6.74002848-1.7233652-8.52654204-3.76006952-.48723097-.62667825-.73084646-1.17502171-.73084646-1.6450304 0-.47000868.16241032-1.09668693.48723097-1.88003474z" fill="#000"/></g></svg>